<svg width="28" height="28" viewBox="0 0 28 28" fill="none" xmlns="http://www.w3.org/2000/svg">
<path d="M12.25 2.625C11.2836 2.625 10.5 3.40856 10.5 4.375V5.25H10.3248L4.375 6.125V7.4375H23.625V6.125L17.6752 5.25H17.5V4.375C17.5 3.40856 16.7164 2.625 15.75 2.625H12.25ZM12.25 4.375H15.75V5.25H12.25V4.375ZM5.25 8.3125L6.43176 22.891C6.50526 23.7997 7.26489 24.5 8.17664 24.5H19.8242C20.736 24.5 21.4943 23.8005 21.5682 22.8918L22.7167 8.75L5.25 8.3125ZM8.75 11.375C9.23344 11.375 9.625 11.7666 9.625 12.25V22.3125H8.3125L7.875 12.25C7.875 11.7666 8.26656 11.375 8.75 11.375ZM14 11.375C14.7249 11.375 15.3125 11.9626 15.3125 12.6875V22.3125H12.6875V12.6875C12.6875 11.9626 13.2751 11.375 14 11.375ZM19.25 11.375C19.7334 11.375 20.125 11.7666 20.125 12.25L19.6875 22.3125H18.375V12.25C18.375 11.7666 18.7666 11.375 19.25 11.375Z" fill="#374952"/>
</svg>
